<?xml version="1.0" standalone="no"?>
<!DOCTYPE svg PUBLIC "-//W3C//DTD SVG 20010904//EN"
 "http://www.w3.org/TR/2001/REC-SVG-20010904/DTD/svg10.dtd">
<svg version="1.0" xmlns="http://www.w3.org/2000/svg"
 width="100.000000pt" height="100.000000pt" viewBox="0 0 100.000000 100.000000"
 preserveAspectRatio="xMidYMid meet">
<metadata>
Created by potrace 1.11, written by Peter Selinger 2001-2013
</metadata>
<g transform="translate(0.000000,100.000000) scale(0.100000,-0.100000)"
fill="#000000" stroke="none">
<path d="M460 987 c-28 -15 -345 -180 -403 -210 -21 -10 -42 -27 -47 -37 -15
-29 -13 -713 2 -728 7 -7 39 -12 72 -12 41 0 56 3 46 9 -11 8 -14 40 -15 158
-1 81 3 154 8 160 6 9 2 15 -16 22 -24 10 -37 45 -29 83 3 18 34 30 81 32 20
1 31 13 60 69 39 75 74 116 100 118 73 5 333 4 361 -2 39 -9 49 -21 100 -117
31 -59 39 -67 65 -68 63 -2 75 -11 75 -60 0 -38 -3 -46 -25 -54 -20 -8 -24
-14 -17 -27 5 -10 8 -82 7 -161 -1 -114 -4 -145 -15 -152 -10 -7 4 -10 46 -10
33 0 65 5 72 12 15 15 17 699 2 728 -5 10 -47 37 -92 60 -46 24 -135 70 -198
103 -63 33 -131 69 -150 79 -41 21 -57 22 -90 5z"/>
<path d="M353 582 c-20 -2 -37 -12 -47 -27 -13 -20 -96 -200 -96 -208 0 -1
130 -2 289 -2 l289 0 -9 25 c-5 14 -14 34 -19 45 -5 11 -23 50 -39 88 -16 37
-36 70 -44 73 -16 6 -274 11 -324 6z"/>
<path d="M204 255 c-43 -43 -17 -105 46 -107 23 -1 38 6 51 23 25 33 24 55 -6
84 -31 32 -59 32 -91 0z"/>
<path d="M704 255 c-19 -19 -23 -31 -18 -52 9 -39 26 -54 63 -55 39 -1 60 18
65 60 4 25 -1 36 -21 52 -34 27 -59 25 -89 -5z"/>
<path d="M270 51 c0 -15 -5 -32 -12 -39 -9 -9 44 -12 242 -12 198 0 251 3 242
12 -7 7 -12 24 -12 38 l0 27 -230 0 -230 0 0 -26z"/>
</g>
</svg>
